<?xml version="1.0" encoding="UTF-8"?>
<svg id="_Слой_1" data-name="Слой 1" xmlns="http://www.w3.org/2000/svg" xmlns:xlink="http://www.w3.org/1999/xlink" version="1.1" viewBox="0 0 652 174">
  <defs>
    <style>
      .cls-1 {
        mask: url(#mask);
      }

      .cls-2 {
        fill: #fff;
        stroke-width: 0px;
      }
    </style>
    <mask id="mask" x="0" y="0" width="652" height="173.1" maskUnits="userSpaceOnUse">
      <g id="mask0_9_378" data-name="mask0 9 378">
        <path class="cls-2" d="M652,0H0v173h652V0Z"/>
      </g>
    </mask>
  </defs>
  <g class="cls-1">
    <g>
      <path class="cls-2" d="M146.3,106c.4-.2.7-.5.9-.9.2-.4.4-.8.4-1.2,0-.4,0-.9-.3-1.3l-10.6-21.3c-.2-.4-.5-.8-.9-1-.4-.3-.9-.4-1.4-.4s-.9.1-1.3.4c-.4.3-.7.6-.9,1l-10.5,21.3c-.2.4-.3.8-.3,1.3,0,.4.2.9.4,1.2.2.4.6.7.9.9.4.2.8.3,1.2.3h21.1c.4,0,.9-.1,1.2-.3h0Z"/>
      <path class="cls-2" d="M52.6,132.3c-.2-.4-.5-.7-.9-.9-.4-.2-.8-.4-1.3-.3h-21.8c-.7,0-1.3.3-1.8.8-.5.5-.8,1.1-.8,1.8v20.8c0,.7-.3,1.3-.8,1.8-.5.5-1.1.8-1.8.8h-3.1c-.7,0-1.3-.3-1.8-.8-.5-.5-.8-1.1-.8-1.8v-28.7c-.1-1.8.3-2.5,2.3-2.6h35.4c4.2,0,7.4-1,9.5-2.8,2.1-1.8,3.2-4.6,3.2-8.2s-1.1-6.2-3.2-8.2c-2.2-2-5.2-2.9-9.1-2.9H0v72h75.8l-9.2-16.2-14-24.5h0Z"/>
      <path class="cls-2" d="M117.6,114.2c-.5,0-.9.1-1.4.4-.4.3-.7.6-.9,1l-7.4,15.1h0c-7.7,15.7-6.4,13.2-12.6,25.3-.2.4-.5.7-.9.9-.4.2-.8.3-1.2.3h-3.2c-.5,0-.9-.1-1.3-.3-.4-.2-.7-.5-1-.9-.2-.4-.4-.8-.4-1.2s0-.9.2-1.3l7.3-14.3h0l2.1-4.4,5.1-10.5h0s28.1-57.7,28.1-57.7c.2-.4.5-.8.9-1,.4-.3.9-.4,1.4-.4h3.7c.5,0,.9.1,1.3.4.4.3.7.6.9,1l19.6,39.7h8.4V0h-27.9v50.7c0,.3,0,.7-.2,1-.1.3-.3.6-.6.8-.2.2-.5.4-.8.6-.3.1-.6.2-1,.2h-3.2c-.7,0-1.4-.3-1.8-.8-.5-.5-.8-1.1-.8-1.8V0H0v93.3h26.1V14.6c0-.7.3-1.3.8-1.8.5-.5,1.1-.8,1.8-.8h3.7c.4,0,.9,0,1.2.3.4.2.7.5.9.9l24,36.6c.2.4.5.7.9.8.4.2.8.3,1.2.3s.8,0,1.2-.3.7-.5.9-.8l24.2-36.6c.2-.4.5-.6.9-.8.4-.2.8-.3,1.2-.3h3.6c.3,0,.7,0,1,.2s.6.3.8.6c.2.2.4.5.6.8.1.3.2.7.2,1v70.9c0,.7-.3,1.3-.8,1.8-.5.5-1.2.8-1.8.8h-3.1c-.7,0-1.3-.3-1.8-.8-.5-.5-.8-1.1-.8-1.8v-50.3c0-.6-.2-1.1-.5-1.6-.3-.5-.8-.8-1.3-.9-.5-.2-1.1-.1-1.6,0-.5.2-1,.6-1.3,1l-19.6,29.4c-.2.4-.5.6-.9.8-.4.2-.8.3-1.2.3s-.8,0-1.2-.3c-.4-.2-.7-.5-.9-.8l-19.6-29.4c-.3-.5-.8-.8-1.3-1-.5-.2-1.1-.2-1.6,0s-1,.5-1.3.9c-.3.4-.5,1-.5,1.5v58.2h21.6c6.5,0,11.7,1.6,15.3,4.9,3.7,3.3,5.6,7.8,5.6,13.7s-1.4,9-4.3,12.5c-2.2,2.7-5.1,4.6-8.4,5.7-.4.1-.7.3-1,.6-.3.3-.5.6-.6.9-.1.4-.2.7-.2,1.1,0,.4.1.7.3,1.1l12.8,22.5,9.5,16.7h81.6v-58.8h-48.9,0c0,0,0,0,0,0Z"/>
      <path class="cls-2" d="M541.9,102.6l44.9-91.9c.3-.6.8-1.2,1.4-1.6.6-.4,1.3-.6,2-.6h5.5c.7,0,1.4.2,2,.6.6.4,1.1.9,1.4,1.6l45.4,91.9c.3.6.4,1.2.4,1.9,0,.7-.2,1.3-.6,1.8-.3.6-.8,1-1.4,1.3-.6.3-1.2.5-1.9.5h-4.9c-.7,0-1.4-.2-2-.6-.6-.4-1.1-.9-1.4-1.5l-11.3-22.6c-.3-.6-.8-1.2-1.4-1.5-.6-.4-1.3-.6-2-.6h-50.1c-.7,0-1.4.2-2,.6-.6.4-1.1.9-1.4,1.6l-11,22.5c-.3.6-.8,1.2-1.4,1.6-.6.4-1.3.6-2,.6h-4.7c-.6,0-1.3-.2-1.9-.5s-1-.8-1.4-1.3c-.3-.6-.5-1.2-.6-1.8,0-.7.1-1.3.4-1.9M577.3,69.7h31.3c.7,0,1.3-.2,1.9-.5.6-.3,1-.8,1.4-1.3.3-.6.5-1.2.6-1.9,0-.7,0-1.3-.4-1.9l-15.7-31.7c-.3-.6-.8-1.2-1.4-1.5-.6-.4-1.3-.6-2-.6s-1.4.2-2,.6c-.6.4-1.1.9-1.4,1.5l-15.6,31.7c-.3.6-.4,1.2-.4,1.9,0,.7.2,1.3.6,1.9.3.6.8,1,1.4,1.3s1.2.5,1.9.5h0s0,0,0,0ZM432.6,104.3V12.4c0-1,.4-2,1.1-2.7.7-.7,1.7-1.1,2.7-1.1h53c9.7,0,17.3,2.4,22.8,7.3,5.5,4.9,8.2,11.7,8.3,20.4,0,7.2-2.2,13.4-6.5,18.5-3.3,4-7.6,6.9-12.6,8.5-.5.2-1,.5-1.4.9-.4.4-.7.9-.9,1.4-.2.5-.3,1.1-.2,1.6,0,.6.2,1.1.5,1.6l19.1,33.7c.3.6.5,1.2.5,1.9s-.2,1.3-.5,1.9c-.3.6-.8,1.1-1.4,1.4-.6.3-1.2.5-1.9.5h-4.9c-.7,0-1.4-.2-1.9-.5-.6-.3-1.1-.8-1.4-1.4l-22.6-39.7c-.3-.6-.8-1.1-1.4-1.4-.6-.3-1.2-.5-1.9-.5h-32.4c-1,0-2,.4-2.7,1.1-.7.7-1.1,1.7-1.1,2.7v35.9c0,1-.4,2-1.1,2.7-.7.7-1.7,1.1-2.7,1.1h-4.7c-.5,0-1-.1-1.5-.3-.5-.2-.9-.5-1.2-.8-.4-.4-.6-.8-.8-1.2-.2-.5-.3-1-.3-1.5h0s0,0,0,0ZM444.9,49.1c0,1,.4,2,1.1,2.7.7.7,1.7,1.1,2.7,1.1h40c6.2,0,10.9-1.4,14.1-4.2,3.2-2.8,4.8-6.8,4.8-12.2s-1.6-9.3-4.8-12.2c-3.2-2.9-7.7-4.4-13.5-4.4h-40.6c-1,0-2,.4-2.7,1.1-.7.7-1.1,1.7-1.1,2.7v25.2h0s0,0,0,0ZM373.1,104.3V11.8c0-1,.4-2,1.1-2.7.7-.7,1.7-1.1,2.7-1.1h4.8c1,0,2,.4,2.7,1.1.7.7,1.1,1.7,1.1,2.7v92.5c0,1-.4,2-1.1,2.7-.7.7-1.7,1.1-2.7,1.1h-4.8c-1,0-2-.4-2.7-1.1-.7-.7-1.1-1.7-1.1-2.7h0ZM223.2,104.3V12.4c0-.5,0-1,.3-1.5.2-.5.5-.9.8-1.3.4-.4.8-.6,1.2-.8.5-.2,1-.3,1.5-.3h5.5c.6,0,1.2.2,1.8.5.6.3,1,.7,1.4,1.3l35.8,54.4c.4.5.8,1,1.4,1.3.5.3,1.2.5,1.8.5s1.2-.2,1.8-.5c.5-.3,1-.7,1.4-1.3l36-54.5c.4-.5.8-1,1.4-1.3.5-.3,1.2-.5,1.8-.5h5.4c1,0,2,.4,2.7,1.1.7.7,1.1,1.7,1.1,2.7v91.9c0,1-.4,2-1.1,2.7s-1.7,1.1-2.7,1.1h-4.6c-1,0-2-.4-2.7-1.1-.7-.7-1.1-1.7-1.1-2.7v-61.3c0-.8-.3-1.6-.8-2.3-.5-.7-1.2-1.2-2-1.4-.8-.2-1.6-.2-2.4,0-.8.3-1.4.8-1.9,1.5l-29.2,43.7c-.3.5-.8,1-1.4,1.2-.5.3-1.2.5-1.8.5s-1.2-.2-1.8-.5c-.5-.3-1-.7-1.4-1.2l-29.2-43.7c-.5-.7-1.1-1.2-1.9-1.5-.8-.3-1.6-.3-2.4,0-.8.2-1.5.7-2,1.4-.5.7-.8,1.5-.8,2.3v61.3c0,1-.4,2-1.1,2.7-.7.7-1.7,1.1-2.7,1.1h-4.5c-.5,0-1,0-1.5-.3-.5-.2-.9-.5-1.2-.8-.4-.4-.6-.8-.8-1.2-.2-.5-.3-1-.3-1.5h0,0Z"/>
      <path class="cls-2" d="M227.7,138.8h-3.9v21.3h3.9v-21.3Z"/>
      <path class="cls-2" d="M262,153.2l-11.7-14.4h-3.2v21.3h3.9v-14.4l11.7,14.4h3.2v-21.3h-3.9v14.4Z"/>
      <path class="cls-2" d="M282.6,142.2h7v17.9h4v-17.9h7v-3.3h-18v3.3Z"/>
      <path class="cls-2" d="M321.1,150.9h10.2v-3.3h-10.2v-5.5h11.5v-3.3h-15.5v21.3h15.9v-3.3h-12v-5.9Z"/>
      <path class="cls-2" d="M351.1,160.1h0s0,0,0,0h0Z"/>
      <path class="cls-2" d="M364.7,153c1.3-.6,2.4-1.4,3.1-2.6.7-1.1,1.1-2.5,1.1-4,0-2.4-.8-4.2-2.4-5.6-1.6-1.4-3.8-2-6.6-2h-8.7v21.3h3.9v-6.2h4.8c.3,0,.5,0,.8,0l4.3,6.2h4.2l-4.9-7c.1,0,.2,0,.3-.1h0ZM363.6,143.2c.9.7,1.3,1.8,1.3,3.1s-.5,2.4-1.3,3.1c-.9.8-2.2,1.1-3.9,1.1h-4.6v-8.5h4.6c1.8,0,3.1.4,3.9,1.1Z"/>
      <path class="cls-2" d="M401.9,153.2l-11.7-14.4h-3.2v21.3h3.9v-14.4l11.7,14.4h3.2v-21.3h-3.9v14.4Z"/>
      <path class="cls-2" d="M431.7,138.8l-9.5,21.3h4l2.1-4.9h10.6l2.1,4.9h4.1l-9.6-21.3h-3.9,0ZM429.6,152.1l4-9.3,4,9.3h-8,0Z"/>
      <path class="cls-2" d="M457.7,142.2h7v17.9h3.9v-17.9h7v-3.3h-18v3.3Z"/>
      <path class="cls-2" d="M496.3,138.8h-3.9v21.3h3.9v-21.3Z"/>
      <path class="cls-2" d="M533.7,141.6c-1-1-2.2-1.8-3.6-2.3-1.4-.6-2.9-.8-4.5-.8s-3.2.3-4.5.8c-1.4.6-2.6,1.3-3.6,2.3-1,1-1.8,2.1-2.4,3.5-.6,1.3-.8,2.8-.8,4.4s.3,3,.8,4.4c.6,1.3,1.4,2.5,2.4,3.5,1,1,2.2,1.8,3.6,2.3,1.4.6,2.9.8,4.6.8h0c1.6,0,3.1-.3,4.5-.8,1.4-.6,2.6-1.3,3.6-2.3,1-1,1.8-2.1,2.4-3.5.6-1.3.9-2.8.9-4.4s-.3-3-.9-4.4c-.6-1.3-1.4-2.5-2.4-3.5ZM532.4,152.5c-.4.9-.9,1.7-1.5,2.4-.7.7-1.4,1.2-2.3,1.6-.9.4-1.9.5-3,.6-1.1,0-2-.2-3-.6-.9-.3-1.7-.9-2.4-1.6-.7-.7-1.2-1.5-1.5-2.4-.4-.9-.6-1.9-.6-3s.2-2.1.6-3c.4-.9.9-1.7,1.6-2.4.7-.7,1.5-1.2,2.3-1.6s1.9-.6,3-.6,2.1.2,3,.6c.9.4,1.7.9,2.3,1.6.7.7,1.2,1.5,1.5,2.4.4.9.6,1.9.6,3s-.2,2.1-.6,3Z"/>
      <path class="cls-2" d="M569.8,153.2l-11.7-14.4h-3.2v21.3h3.9v-14.4l11.7,14.4h3.2v-21.3h-3.9v14.4Z"/>
      <path class="cls-2" d="M599.6,138.8l-9.5,21.3h4l2.1-4.9h10.6l2.1,4.9h4.1l-9.6-21.3h-3.9,0ZM597.5,152.1l4-9.3,4,9.3h-8,0Z"/>
      <path class="cls-2" d="M633.3,156.8v-17.9h-3.9v21.2h15v-3.3h-11.1Z"/>
    </g>
  </g>
</svg>